<svg xmlns="http://www.w3.org/2000/svg" width="19" height="15" viewBox="0 0 19 15" fill="none">
  <path d="M15.6698 2.05705C14.5276 1.52263 13.3063 1.13424 12.0294 0.913086C11.8726 1.1966 11.6894 1.57792 11.5631 1.88127C10.2058 1.67714 8.86093 1.67714 7.52857 1.88127C7.40228 1.57792 7.21492 1.1966 7.0567 0.913086C5.77847 1.13424 4.55576 1.52406 3.41354 2.05988C1.10967 5.54132 0.485134 8.93628 0.797405 12.283C2.32545 13.4241 3.80631 14.1173 5.26217 14.5709C5.62164 14.0762 5.94223 13.5503 6.21841 12.9961C5.69241 12.7962 5.18862 12.5495 4.71259 12.2632C4.83888 12.1696 4.96241 12.0718 5.08175 11.9712C7.98517 13.3292 11.1398 13.3292 14.0085 11.9712C14.1293 12.0718 14.2528 12.1696 14.3777 12.2632C13.9003 12.551 13.3951 12.7976 12.8691 12.9975C13.1453 13.5503 13.4645 14.0776 13.8253 14.5723C15.2826 14.1187 16.7648 13.4256 18.2929 12.283C18.6593 8.40329 17.667 5.03951 15.6698 2.05705ZM6.61396 10.2248C5.74238 10.2248 5.02762 9.41115 5.02762 8.4203C5.02762 7.42945 5.72712 6.61438 6.61396 6.61438C7.50082 6.61438 8.21556 7.42802 8.2003 8.4203C8.20168 9.41115 7.50082 10.2248 6.61396 10.2248ZM12.4763 10.2248C11.6047 10.2248 10.89 9.41115 10.89 8.4203C10.89 7.42945 11.5895 6.61438 12.4763 6.61438C13.3632 6.61438 14.0779 7.42802 14.0627 8.4203C14.0627 9.41115 13.3632 10.2248 12.4763 10.2248Z" fill="#6E6E6E"/>
</svg>