<svg xmlns="http://www.w3.org/2000/svg" width="24" height="25" viewBox="0 0 24 25" fill="none">
  <path d="M11.6248 12.3494H12.3748M11.6248 13.0994H12.3748M4.62476 12.3494H5.37476M4.62476 13.0994H5.37476M18.6248 12.3494H19.3748M18.6248 13.0994H19.3748M13 12.7245C13 13.2768 12.5523 13.7245 12 13.7245C11.4477 13.7245 11 13.2768 11 12.7245C11 12.1722 11.4477 11.7245 12 11.7245C12.5523 11.7245 13 12.1722 13 12.7245ZM6 12.7245C6 13.2768 5.55229 13.7245 5 13.7245C4.44772 13.7245 4 13.2768 4 12.7245C4 12.1722 4.44772 11.7245 5 11.7245C5.55229 11.7245 6 12.1722 6 12.7245ZM20 12.7245C20 13.2768 19.5523 13.7245 19 13.7245C18.4477 13.7245 18 13.2768 18 12.7245C18 12.1722 18.4477 11.7245 19 11.7245C19.5523 11.7245 20 12.1722 20 12.7245Z" stroke="white" stroke-width="2" stroke-linecap="round"/>
</svg>