<svg xmlns="http://www.w3.org/2000/svg" width="14" height="15" viewBox="0 0 14 15" fill="none">
  <g clip-path="url(#clip0_335_781)">
    <path fill-rule="evenodd" clip-rule="evenodd" d="M7.01675 0.913086C3.17295 0.913086 0.0656128 4.04333 0.0656128 7.91587C0.0656128 11.0114 2.05659 13.6317 4.81861 14.5591C5.16393 14.6288 5.29042 14.4084 5.29042 14.223C5.29042 14.0607 5.27904 13.5042 5.27904 12.9244C3.3454 13.3419 2.94274 12.0896 2.94274 12.0896C2.63199 11.278 2.17156 11.0695 2.17156 11.0695C1.53868 10.6405 2.21766 10.6405 2.21766 10.6405C2.91969 10.6869 3.28806 11.3593 3.28806 11.3593C3.90941 12.4258 4.91066 12.1245 5.31347 11.939C5.37095 11.4868 5.55521 11.1737 5.75085 10.9999C4.20864 10.8375 2.58603 10.2347 2.58603 7.5448C2.58603 6.77959 2.86206 6.15354 3.29944 5.66665C3.23043 5.49278 2.98869 4.77382 3.36859 3.81155C3.36859 3.81155 3.95551 3.62601 5.27889 4.53037C5.84548 4.37708 6.42979 4.2991 7.01675 4.29845C7.60367 4.29845 8.20198 4.37969 8.75446 4.53037C10.078 3.62601 10.6649 3.81155 10.6649 3.81155C11.0448 4.77382 10.8029 5.49278 10.7339 5.66665C11.1828 6.15354 11.4475 6.77959 11.4475 7.5448C11.4475 10.2347 9.82487 10.8259 8.27113 10.9999C8.52439 11.2201 8.74294 11.6375 8.74294 12.2984C8.74294 13.2374 8.73156 13.9911 8.73156 14.2229C8.73156 14.4084 8.85819 14.6288 9.20337 14.5593C11.9654 13.6316 13.9564 11.0114 13.9564 7.91587C13.9677 4.04333 10.849 0.913086 7.01675 0.913086Z" fill="#6F6F6F"/>
  </g>
  <defs>
    <clipPath id="clip0_335_781">
      <rect width="13.9438" height="13.6593" fill="white" transform="translate(0.0656128 0.913086)"/>
    </clipPath>
  </defs>
</svg>