<svg width="238" height="346" viewBox="0 0 238 346" fill="none" xmlns="http://www.w3.org/2000/svg">
<circle cx="117.897" cy="172.015" r="14.7889" fill="url(#paint0_linear_295_3083)"/>
<path d="M114.357 328.567C114.365 329.378 114.355 330.164 114.328 330.921C114.328 330.127 114.338 329.342 114.357 328.567C114.167 308.992 103.373 274.81 61.6459 271.045C58.6109 271.146 55.7725 271.012 53.2473 270.707C56.1771 270.687 58.9749 270.804 61.6459 271.045C83.0818 270.328 114.328 257.851 114.328 210.494C114.469 230.112 126.171 268.908 171.361 270.647C172.467 270.635 173.53 270.656 174.542 270.707C173.463 270.707 172.403 270.687 171.361 270.647C150.87 270.866 115.521 282.481 114.357 328.567Z" fill="#D56AFF"/>
<path d="M114.328 330.921C115.05 310.705 103.844 270.361 53.2473 270.707C73.6074 273.162 114.328 264.556 114.328 210.494C114.472 230.565 126.717 270.707 174.542 270.707C154.47 269.697 114.328 280.324 114.328 330.921Z" stroke="#D56AFF" stroke-width="28.8543" stroke-miterlimit="3.99393" stroke-linejoin="round"/>
<path d="M123.391 17.1951C123.384 16.3843 123.394 15.5986 123.421 14.8411C123.421 15.6356 123.411 16.4202 123.391 17.1951C123.582 36.7701 134.375 70.9525 176.103 74.7175C179.138 74.6161 181.976 74.7504 184.501 75.0548C181.571 75.0749 178.774 74.9585 176.103 74.7175C154.667 75.4341 123.421 87.9113 123.421 135.269C123.28 115.65 111.577 76.8545 66.3873 75.1153C65.2814 75.1272 64.2187 75.1058 63.207 75.0548C64.2851 75.0548 65.3451 75.0752 66.3873 75.1153C86.8785 74.8964 122.228 63.2815 123.391 17.1951Z" fill="black"/>
<path d="M123.421 14.8411C122.699 35.0567 133.904 75.4014 184.501 75.0548C164.141 72.6001 123.421 81.2062 123.421 135.269C123.276 115.197 111.031 75.0548 63.207 75.0548C83.2783 76.0656 123.421 65.438 123.421 14.8411Z" stroke="black" stroke-width="28.8543" stroke-miterlimit="3.99393" stroke-linejoin="round"/>
<path d="M174.531 270.375C211.05 267.703 264.393 236.244 170.838 158.958" stroke="url(#paint1_linear_295_3083)" stroke-width="28.8543"/>
<path d="M63.2175 75.3867C26.6984 78.0589 -26.6449 109.518 66.9109 186.804" stroke="url(#paint2_linear_295_3083)" stroke-width="28.8543"/>
<defs>
<linearGradient id="paint0_linear_295_3083" x1="103.108" y1="172.015" x2="132.686" y2="172.015" gradientUnits="userSpaceOnUse">
<stop stop-color="#DD8EFF"/>
<stop offset="1" stop-color="white"/>
</linearGradient>
<linearGradient id="paint1_linear_295_3083" x1="170.838" y1="158.958" x2="196.978" y2="270.375" gradientUnits="userSpaceOnUse">
<stop stop-color="white"/>
<stop offset="1" stop-color="#D56AFF"/>
</linearGradient>
<linearGradient id="paint2_linear_295_3083" x1="40.7709" y1="75.3867" x2="66.9109" y2="186.804" gradientUnits="userSpaceOnUse">
<stop/>
<stop offset="1" stop-color="white" stop-opacity="0"/>
</linearGradient>
</defs>
</svg>
