<svg width="334" height="192" viewBox="0 0 334 192" fill="none" xmlns="http://www.w3.org/2000/svg">
<g style="mix-blend-mode:multiply">
<path d="M320.315 85.9104L222.075 29.1904C202.705 18.0004 168.865 17.9404 146.495 30.8604C124.125 43.7804 121.695 63.3104 141.065 74.5004L231.235 126.56V138.18C230.615 137.77 230.025 137.35 229.345 136.96L131.105 80.2404C111.735 69.0504 77.895 70.4604 55.525 83.3704C33.155 96.2904 30.725 115.82 50.095 127.01L144.635 181.59V191.26H179.785C179.935 191.26 180.085 191.26 180.225 191.26H182.855V191.22C197.195 190.96 212.145 187.38 223.915 180.59C245.135 168.34 248.375 150.15 232.125 138.76H274.665V138.7C288.745 138.31 303.335 134.74 314.875 128.08C337.245 115.17 339.675 97.0904 320.305 85.9104H320.315Z" fill="#DAE0E7"/>
</g>
<path d="M187.015 9.77038L285.255 66.4904C304.625 77.6804 302.195 97.2104 279.825 110.13C257.455 123.05 223.615 124.45 204.245 113.26L106.005 56.5404C86.635 45.3504 89.065 25.8204 111.435 12.9004C133.805 -0.0196199 167.645 -1.41962 187.015 9.77038Z" fill="white"/>
<path d="M237.055 122.13C224.495 122.13 212.505 119.6 203.555 114.43L105.315 57.7104C96.445 52.5904 91.555 45.4404 91.555 37.5804C91.555 28.1804 98.545 18.7604 110.745 11.7204C133.455 -1.38961 167.975 -2.79961 187.685 8.59039L285.925 65.3104C294.795 70.4304 299.685 77.5804 299.685 85.4404C299.685 94.8404 292.695 104.26 280.495 111.3C268.095 118.46 252.165 122.13 237.045 122.13H237.055ZM154.195 3.57039C139.575 3.57039 124.145 7.13039 112.115 14.0804C100.785 20.6204 94.285 29.1904 94.285 37.5904C94.285 44.4404 98.685 50.7504 106.685 55.3704L204.925 112.09C223.895 123.04 257.185 121.64 279.155 108.96C290.485 102.42 296.985 93.8504 296.985 85.4504C296.985 78.6004 292.585 72.2904 284.585 67.6804L186.335 10.9404C177.755 5.99039 166.255 3.56039 154.195 3.56039V3.57039Z" fill="#34393A"/>
<path d="M298.275 85.6804C298.155 94.1804 291.945 103.12 279.825 110.12C257.455 123.04 223.615 124.44 204.245 113.25L106.005 56.5304C97.045 51.3604 92.805 44.3904 92.995 37.1304L92.935 37.0604V53.8804H92.995C92.895 61.0704 97.145 67.9504 106.015 73.0804L204.255 129.8C223.625 140.98 257.465 139.58 279.835 126.67C291.805 119.76 298.005 110.96 298.275 102.55L298.335 102.58V85.6604L298.295 85.6804H298.275Z" fill="#DAE0E7"/>
<path d="M237.055 138.68C224.495 138.68 212.505 136.15 203.555 130.98L105.315 74.2604C96.515 69.1804 91.665 62.0904 91.615 54.2504C91.575 54.1304 91.565 54.0104 91.565 53.8804V37.0604C91.565 36.5004 91.915 35.9904 92.445 35.7904C92.975 35.5904 93.565 35.7404 93.945 36.1604C94.175 36.4204 94.365 36.8204 94.355 37.1704C94.185 44.2004 98.565 50.6604 106.685 55.3604L204.925 112.08C223.895 123.03 257.185 121.63 279.145 108.95C290.325 102.5 296.805 94.0104 296.915 85.6704C296.915 85.1104 297.275 84.6004 297.805 84.4104L297.845 84.3904C298.265 84.2304 298.725 84.3004 299.095 84.5504C299.455 84.8004 299.675 85.2204 299.675 85.6604V102.58C299.675 102.74 299.645 102.89 299.595 103.03C299.095 112.09 292.165 121.11 280.495 127.85C268.095 135.01 252.165 138.68 237.045 138.68H237.055ZM94.285 53.5304C94.325 53.6504 94.345 53.7804 94.345 53.9104C94.245 60.8704 98.635 67.2604 106.685 71.9104L204.925 128.63C223.895 139.58 257.185 138.18 279.145 125.5C290.165 119.14 296.645 110.76 296.905 102.51C296.905 102.39 296.925 102.28 296.965 102.16V95.5804C293.885 101.38 288.245 106.83 280.515 111.29C257.805 124.4 223.295 125.81 203.575 114.42L105.335 57.7004C100.315 54.8004 96.585 51.2604 94.295 47.2904V53.5104L94.285 53.5304Z" fill="#34393A"/>
<path d="M96.055 62.2804L194.295 119C213.665 130.19 211.235 149.72 188.865 162.64C166.495 175.56 132.655 176.96 113.285 165.77L15.045 109.05C-4.325 97.8604 -1.895 78.3304 20.475 65.4104C42.845 52.4904 76.685 51.0904 96.055 62.2804Z" fill="white"/>
<path d="M146.095 174.64C133.535 174.64 121.545 172.11 112.595 166.94L14.365 110.23C5.49498 105.11 0.60498 97.9604 0.60498 90.1004C0.60498 80.7004 7.59498 71.2804 19.795 64.2404C42.505 51.1304 77.025 49.7204 96.735 61.1104L194.975 117.83C203.845 122.95 208.735 130.1 208.735 137.96C208.735 147.36 201.745 156.78 189.545 163.82C177.145 170.98 161.215 174.65 146.095 174.65V174.64ZM63.235 56.0804C48.615 56.0804 33.185 59.6404 21.155 66.5904C9.82498 73.1304 3.32498 81.7004 3.32498 90.1004C3.32498 96.9504 7.72498 103.26 15.725 107.88L113.965 164.6C132.935 175.55 166.225 174.15 188.185 161.47C199.515 154.93 206.015 146.36 206.015 137.96C206.015 131.11 201.615 124.8 193.615 120.18L95.375 63.4604C86.795 58.5104 75.295 56.0804 63.235 56.0804Z" fill="#34393A"/>
<path d="M207.315 138.2C207.195 146.7 200.985 155.64 188.865 162.64C166.495 175.56 132.655 176.96 113.285 165.77L15.045 109.05C6.08498 103.88 1.84498 96.9104 2.03498 89.6504L1.97498 89.5804V106.4H2.03498C1.93498 113.59 6.18498 120.47 15.055 125.6L113.295 182.32C132.665 193.5 166.505 192.1 188.875 179.19C200.845 172.28 207.045 163.48 207.315 155.07L207.375 155.1V138.18L207.335 138.2H207.315Z" fill="#DAE0E7"/>
<path d="M146.095 191.19C133.535 191.19 121.545 188.66 112.595 183.49L14.365 126.78C5.56498 121.7 0.71498 114.61 0.66498 106.78C0.62498 106.66 0.60498 106.54 0.60498 106.41V89.5904C0.60498 89.0304 0.95498 88.5204 1.47498 88.3204C1.99498 88.1204 2.59498 88.2604 2.97498 88.6804C3.20498 88.9404 3.39498 89.3504 3.39498 89.7004C3.21498 96.7304 7.60498 103.19 15.725 107.89L113.965 164.61C132.935 175.56 166.235 174.16 188.185 161.48C199.365 155.03 205.845 146.54 205.955 138.2C205.955 137.64 206.315 137.13 206.845 136.94L206.885 136.92C207.305 136.76 207.765 136.83 208.135 137.08C208.495 137.33 208.715 137.75 208.715 138.19V155.11C208.715 155.27 208.685 155.42 208.635 155.56C208.135 164.62 201.205 173.64 189.535 180.38C177.135 187.54 161.205 191.21 146.085 191.21L146.095 191.19ZM3.32498 106.04C3.36498 106.16 3.38498 106.29 3.38498 106.42C3.28498 113.38 7.67498 119.77 15.725 124.42L113.965 181.14C132.935 192.09 166.225 190.69 188.185 178.01C199.205 171.65 205.685 163.27 205.945 155.02C205.945 154.9 205.965 154.79 206.005 154.67V148.09C202.925 153.89 197.285 159.34 189.555 163.8C166.845 176.91 132.335 178.32 112.615 166.93L14.365 110.23C9.34498 107.33 5.61498 103.78 3.32498 99.8204V106.04Z" fill="#34393A"/>
<path d="M136.915 138.41L52.925 89.9204C49.565 87.9804 49.985 84.5804 53.865 82.3404C57.755 80.1004 63.625 79.8504 66.995 81.8004L150.985 130.29C154.345 132.23 153.925 135.63 150.045 137.87C146.165 140.11 140.285 140.36 136.915 138.41Z" fill="#5E646B"/>
<path d="M142.635 141C140.275 141 138.015 140.51 136.285 139.51L52.295 91.0204C50.425 89.9404 49.395 88.3804 49.395 86.6304C49.395 84.6204 50.795 82.6604 53.245 81.2504C57.545 78.7704 63.865 78.5304 67.635 80.7104L151.625 129.2C153.495 130.28 154.525 131.84 154.525 133.59C154.525 135.6 153.125 137.56 150.675 138.97C148.345 140.32 145.425 141 142.635 141ZM61.305 81.7604C58.935 81.7604 56.415 82.3304 54.495 83.4404C52.875 84.3704 51.915 85.5704 51.915 86.6304C51.915 87.6904 52.805 88.3904 53.555 88.8304L137.545 137.32C140.505 139.03 145.935 138.78 149.405 136.78C151.025 135.85 151.985 134.65 151.985 133.59C151.985 132.53 151.095 131.83 150.345 131.39L66.355 82.9004C65.035 82.1404 63.215 81.7604 61.305 81.7604Z" fill="#34393A"/>
<path d="M233.375 94.0904L149.385 45.6004C146.025 43.6604 146.445 40.2604 150.325 38.0204C154.215 35.7804 160.085 35.5304 163.455 37.4804L247.445 85.9704C250.805 87.9104 250.385 91.3104 246.505 93.5504C242.615 95.7904 236.745 96.0404 233.375 94.0904Z" fill="#5E646B"/>
<path d="M239.095 96.6704C236.735 96.6704 234.475 96.1804 232.745 95.1804L148.755 46.6904C146.885 45.6104 145.855 44.0504 145.855 42.3004C145.855 40.2904 147.255 38.3304 149.705 36.9204C154.005 34.4404 160.325 34.2004 164.095 36.3704L248.085 84.8604C249.955 85.9404 250.985 87.5004 250.985 89.2504C250.985 91.2604 249.585 93.2204 247.135 94.6304C244.805 95.9804 241.885 96.6604 239.095 96.6604V96.6704ZM157.775 37.4304C155.405 37.4304 152.885 38.0004 150.965 39.1104C149.345 40.0404 148.385 41.2404 148.385 42.3004C148.385 43.3604 149.275 44.0604 150.025 44.5004L234.015 92.9904C236.975 94.7004 242.405 94.4504 245.875 92.4504C247.495 91.5204 248.455 90.3204 248.455 89.2604C248.455 88.2004 247.565 87.5004 246.815 87.0604L162.825 38.5704C161.505 37.8104 159.685 37.4304 157.775 37.4304Z" fill="#34393A"/>
<path d="M107.385 75.2004C107.385 77.6204 106.795 80.0504 105.665 82.3904C103.615 86.4804 99.825 90.3704 94.215 93.6104C76.595 103.78 48.075 103.78 30.455 93.6104C24.845 90.3704 21.045 86.4804 19.005 82.3904C17.865 80.0504 17.285 77.6304 17.285 75.2004C17.285 68.5404 21.665 61.8804 30.465 56.7904C48.085 46.6504 76.605 46.6504 94.225 56.7904C103.015 61.8704 107.405 68.5404 107.405 75.2004H107.385Z" fill="#7BA9FF"/>
<path d="M62.335 102.55C50.545 102.55 38.755 99.9604 29.775 94.7804C24.165 91.5404 20.025 87.4604 17.785 82.9904C16.545 80.4504 15.915 77.8304 15.915 75.1904C15.915 67.7304 20.835 60.7704 29.775 55.6004C47.735 45.2704 76.945 45.2704 94.895 55.6004C103.835 60.7704 108.755 67.7204 108.755 75.1904C108.755 77.8204 108.125 80.4404 106.895 82.9704C104.655 87.4504 100.505 91.5304 94.895 94.7704C85.915 99.9504 74.125 102.54 62.335 102.54V102.55ZM62.335 50.5404C51.035 50.5404 39.735 53.0104 31.135 57.9704C23.075 62.6304 18.635 68.7504 18.635 75.2004C18.635 77.4204 19.165 79.6304 20.225 81.7904C22.215 85.7704 25.995 89.4504 31.135 92.4304C48.335 102.36 76.335 102.36 93.535 92.4304C98.675 89.4604 102.455 85.7704 104.455 81.7804C105.505 79.6304 106.035 77.4104 106.035 75.2004C106.035 68.7504 101.595 62.6304 93.535 57.9704C84.935 53.0204 73.635 50.5504 62.335 50.5504V50.5404Z" fill="#34393A"/>
<path d="M107.385 75.2004V89.5804C107.385 96.2404 103.005 102.9 94.205 107.99C76.585 118.16 48.065 118.16 30.445 107.99C21.655 102.91 17.265 96.2404 17.265 89.5804V75.2004C17.265 77.6204 17.845 80.0504 18.985 82.3904C21.035 86.4804 24.825 90.3704 30.435 93.6104C48.055 103.78 76.5749 103.78 94.1949 93.6104C99.8049 90.3704 103.605 86.4804 105.645 82.3904C106.785 80.0504 107.365 77.6304 107.365 75.2004H107.385Z" fill="#7BA9FF"/>
<path d="M62.335 116.93C50.545 116.93 38.755 114.34 29.775 109.16C20.835 103.99 15.915 97.0404 15.915 89.5704V75.1904C15.915 74.4404 16.525 73.8304 17.275 73.8304C18.025 73.8304 18.635 74.4404 18.635 75.1904C18.635 77.4104 19.165 79.6204 20.225 81.7804C22.215 85.7604 25.995 89.4404 31.135 92.4204C48.335 102.35 76.335 102.35 93.535 92.4204C98.675 89.4504 102.455 85.7604 104.455 81.7704C105.505 79.6204 106.035 77.4004 106.035 75.1904C106.035 74.4404 106.645 73.8304 107.395 73.8304C108.145 73.8304 108.755 74.4404 108.755 75.1904V89.5704C108.755 97.0304 103.835 103.99 94.895 109.15C85.915 114.33 74.125 116.92 62.335 116.92V116.93ZM18.635 84.5304V89.5704C18.635 96.0204 23.075 102.14 31.135 106.8C48.335 116.73 76.335 116.73 93.535 106.8C101.595 102.14 106.035 96.0204 106.035 89.5704V84.5204C103.665 88.3904 99.855 91.9104 94.895 94.7704C76.935 105.13 47.725 105.13 29.775 94.7704C24.815 91.9004 20.995 88.3804 18.635 84.5204V84.5304Z" fill="#34393A"/>
<path d="M282.355 71.1804C282.355 73.6004 281.775 76.0304 280.635 78.3704C278.585 82.4604 274.795 86.3504 269.185 89.5904C251.565 99.7604 223.045 99.7604 205.425 89.5904C199.815 86.3504 196.015 82.4604 193.975 78.3704C192.835 76.0304 192.255 73.6104 192.255 71.1804C192.255 64.5204 196.635 57.8604 205.435 52.7704C223.055 42.6304 251.575 42.6304 269.195 52.7704C277.985 57.8504 282.375 64.5204 282.375 71.1804H282.355Z" fill="#D56AFF"/>
<path d="M282.355 71.1804V85.5604C282.355 92.2204 277.975 98.8804 269.175 103.97C251.555 114.14 223.035 114.14 205.415 103.97C196.625 98.8904 192.235 92.2204 192.235 85.5604V71.1804C192.235 73.6004 192.815 76.0304 193.955 78.3704C196.005 82.4604 199.795 86.3504 205.405 89.5904C223.025 99.7604 251.545 99.7604 269.165 89.5904C274.775 86.3504 278.575 82.4604 280.615 78.3704C281.755 76.0304 282.335 73.6104 282.335 71.1804H282.355Z" fill="#D56AFF"/>
<path d="M237.295 98.5404C225.505 98.5404 213.715 95.9504 204.735 90.7704C199.125 87.5304 194.985 83.4504 192.745 78.9804C191.505 76.4404 190.875 73.8204 190.875 71.1804C190.875 63.7204 195.795 56.7604 204.735 51.5904C222.695 41.2604 251.905 41.2604 269.855 51.5904C278.795 56.7604 283.715 63.7104 283.715 71.1804C283.715 73.8104 283.085 76.4304 281.855 78.9604C279.615 83.4404 275.465 87.5204 269.855 90.7604C260.875 95.9404 249.085 98.5304 237.295 98.5304V98.5404ZM237.295 46.5304C225.995 46.5304 214.695 49.0004 206.095 53.9604C198.035 58.6204 193.595 64.7404 193.595 71.1904C193.595 73.4104 194.125 75.6204 195.185 77.7804C197.175 81.7604 200.955 85.4404 206.095 88.4204C223.295 98.3504 251.285 98.3504 268.495 88.4204C273.645 85.4504 277.415 81.7604 279.415 77.7704C280.465 75.6204 280.995 73.4004 280.995 71.1904C280.995 64.7404 276.555 58.6204 268.495 53.9604C259.895 49.0104 248.595 46.5404 237.295 46.5404V46.5304Z" fill="#34393A"/>
<path d="M237.295 112.91C225.505 112.91 213.715 110.32 204.735 105.14C195.795 99.9704 190.875 93.0204 190.875 85.5604V71.1804C190.875 70.4304 191.485 69.8204 192.235 69.8204C192.985 69.8204 193.595 70.4304 193.595 71.1804C193.595 73.4004 194.125 75.6104 195.185 77.7704C197.175 81.7504 200.955 85.4304 206.095 88.4104C223.295 98.3404 251.285 98.3404 268.495 88.4104C273.645 85.4404 277.415 81.7504 279.415 77.7604C280.465 75.6104 280.995 73.3904 280.995 71.1804C280.995 70.4304 281.605 69.8204 282.355 69.8204C283.105 69.8204 283.715 70.4304 283.715 71.1804V85.5604C283.715 93.0204 278.795 99.9804 269.855 105.14C260.875 110.32 249.085 112.91 237.295 112.91ZM193.595 80.5104V85.5604C193.595 92.0104 198.035 98.1304 206.095 102.79C223.295 112.72 251.285 112.72 268.495 102.79C276.555 98.1304 280.995 92.0104 280.995 85.5604V80.5104C278.625 84.3804 274.815 87.9004 269.855 90.7604C251.895 101.12 222.685 101.12 204.735 90.7604C199.775 87.8904 195.955 84.3704 193.595 80.5104Z" fill="#34393A"/>
</svg>
