<svg xmlns="http://www.w3.org/2000/svg" width="27" height="34" viewBox="0 0 27 34" fill="none">
  <circle cx="13.5879" cy="17.0918" r="1.35017" transform="rotate(16.6944 13.5879 17.0918)" fill="url(#paint0_linear_276_1917)"/>
  <path d="M9.17253 30.689C9.15196 30.7602 9.13045 30.8286 9.10822 30.8941C9.12905 30.8247 9.1505 30.7563 9.17253 30.689C9.66925 28.9723 9.62188 25.7 6.07164 24.2764C5.80356 24.2057 5.55887 24.1195 5.34603 24.0266C5.60277 24.1017 5.84438 24.1853 6.07164 24.2764C7.96496 24.7759 11.0246 24.5043 12.2666 20.363C11.7644 22.0823 11.7703 25.7818 15.6765 27.119C15.7735 27.147 15.8659 27.1768 15.953 27.2077C15.8587 27.1795 15.7666 27.1499 15.6765 27.119C13.8788 26.6008 10.483 26.6894 9.17253 30.689Z" fill="#D56AFF"/>
  <path d="M9.10822 30.8941C9.70153 29.1452 9.77972 25.3233 5.34603 24.0266C7.06211 24.7753 10.8487 25.0906 12.2666 20.363C11.7528 22.1219 11.7708 25.9535 15.953 27.2077C14.2243 26.593 10.4352 26.4695 9.10822 30.8941Z" stroke="#D56AFF" stroke-width="2.63429" stroke-miterlimit="3.99393" stroke-linejoin="round"/>
  <path d="M18.1287 3.69718C18.1493 3.62607 18.1708 3.55763 18.193 3.49209C18.1722 3.56157 18.1507 3.62993 18.1287 3.69718C17.632 5.41397 17.6794 8.68623 21.2296 10.1098C21.4977 10.1806 21.7424 10.2667 21.9552 10.3596C21.6985 10.2845 21.4569 10.201 21.2296 10.1098C19.3363 9.61031 16.2767 9.88196 15.0346 14.0233C15.5368 12.3039 15.5309 8.60445 11.6248 7.26719C11.5277 7.23922 11.4354 7.20948 11.3482 7.17849C11.4425 7.20676 11.5347 7.23635 11.6248 7.26719C13.4224 7.78545 16.8183 7.69683 18.1287 3.69718Z" fill="white"/>
  <path d="M18.193 3.49209C17.5997 5.24099 17.5215 9.06293 21.9552 10.3596C20.2391 9.61096 16.4525 9.2956 15.0346 14.0233C15.5484 12.2643 15.5304 8.43275 11.3482 7.17849C13.0769 7.79328 16.8661 7.9167 18.193 3.49209Z" stroke="white" stroke-width="2.63429" stroke-miterlimit="3.99393" stroke-linejoin="round"/>
  <path d="M15.9608 27.1784C19.2244 27.9025 24.7142 26.5505 18.5599 17.3383" stroke="url(#paint1_linear_276_1917)" stroke-width="2.63429"/>
  <path d="M11.3405 7.20778C8.07684 6.4837 2.58701 7.83573 8.74137 17.0479" stroke="url(#paint2_linear_276_1917)" stroke-width="2.63429"/>
  <defs>
    <linearGradient id="paint0_linear_276_1917" x1="12.2377" y1="17.0918" x2="14.938" y2="17.0918" gradientUnits="userSpaceOnUse">
      <stop stop-color="#DD8EFF"/>
      <stop offset="1" stop-color="white"/>
    </linearGradient>
    <linearGradient id="paint1_linear_276_1917" x1="18.5599" y1="17.3383" x2="17.9237" y2="27.7671" gradientUnits="userSpaceOnUse">
      <stop stop-color="#1C1C1C"/>
      <stop offset="1" stop-color="#D56AFF"/>
    </linearGradient>
    <linearGradient id="paint2_linear_276_1917" x1="9.37754" y1="6.61909" x2="8.74137" y2="17.0479" gradientUnits="userSpaceOnUse">
      <stop stop-color="white"/>
      <stop offset="1" stop-color="#1C1C1C"/>
    </linearGradient>
  </defs>
</svg>