<svg xmlns="http://www.w3.org/2000/svg" width="193" height="210" viewBox="0 0 193 210" fill="none">
  <g clip-path="url(#clip0_283_1992)">
    <path d="M166.298 46.9704C184.168 49.7404 194.778 60.3404 189.978 70.6604C189.318 72.0704 188.398 73.4104 187.268 74.6604L157.618 65.6504L160.218 46.3704C162.228 46.4604 164.268 46.6504 166.288 46.9704H166.298Z" fill="#373A3A"/>
    <path d="M159.678 106.46L187.458 148.89L159.678 164.92V106.46Z" fill="#969A9E"/>
    <path d="M157.618 65.6604L187.268 74.6704C180.168 82.5004 164.368 86.7204 148.958 84.3504C131.078 81.5804 120.478 70.9804 125.268 60.6704C129.518 51.5204 144.438 45.6704 160.228 46.3904L157.628 65.6704L157.618 65.6604Z" fill="#D56AFF"/>
    <path d="M159.678 106.46V164.92L144.528 156.18C144.068 149.35 142.788 142.32 140.798 135.29L159.678 106.46Z" fill="#5F646B"/>
    <path d="M46.2982 57.8904C56.7382 51.8304 71.1782 52.6604 87.0882 61.8504C91.0782 64.1604 94.9782 66.8704 98.7383 69.9404C117.998 85.6504 133.788 110.49 140.798 135.28C142.788 142.31 144.068 149.35 144.528 156.17C144.658 158.02 144.718 159.84 144.718 161.66V191.99L117.708 207.59V177.26C117.708 140.56 91.8582 95.7904 60.0782 77.4404C44.1982 68.2704 29.7882 67.4104 19.3582 73.4304L46.2982 57.8704V57.8904Z" fill="#7BA9FF"/>
    <path d="M117.708 177.27V207.6L87.1582 189.96V159.63C87.1582 142.39 75.0082 121.35 60.0782 112.74C60.0582 112.74 60.0382 112.71 60.0182 112.7C45.1182 104.13 33.0082 111.15 33.0082 128.36V158.69L2.44824 141.05V110.72C2.44824 95.5904 6.84824 84.1604 14.2382 77.2504C15.8182 75.7804 17.5282 74.5104 19.3582 73.4504C29.7882 67.4304 44.1982 68.2804 60.0782 77.4604C91.8582 95.8104 117.708 140.58 117.708 177.28V177.27Z" fill="white"/>
    <path d="M98.7382 20.1804V69.9504C94.9782 66.8804 91.0782 64.1604 87.0882 61.8604C71.1782 52.6704 56.7382 51.8304 46.2982 57.9004L31.6382 66.3704V26.4704L56.2082 12.2904V44.7304L98.7482 20.1704L98.7382 20.1804Z" fill="#969A9E"/>
    <path d="M98.7382 20.1804L56.1982 44.7304V23.9304L80.7182 9.7804L98.7382 20.1804Z" fill="#C2C7CC"/>
    <path d="M60.0182 112.76V143.09L33.0082 158.69V128.36C33.0082 111.14 45.1182 104.13 60.0182 112.7V112.77V112.76Z" fill="#373A3A"/>
    <path d="M56.1982 12.2904L31.6282 26.4704L13.6082 16.0704L38.1682 1.89038L56.1982 12.2904Z" fill="#C2C7CC"/>
    <path d="M31.6282 26.4704V66.3604L19.3482 73.4404C17.5182 74.5004 15.8082 75.7704 14.2282 77.2404L13.5982 76.8804V16.0704L31.6182 26.4704H31.6282Z" fill="#DAE0E5"/>
    <path d="M117.708 209.1C117.448 209.1 117.188 209.03 116.958 208.9L86.4082 191.26C85.9482 190.99 85.6582 190.5 85.6582 189.96V159.63C85.6582 142.87 73.8482 122.41 59.3282 114.04C59.2682 114.01 59.2082 113.98 59.1582 113.94C52.4782 110.13 46.2782 109.5 41.6882 112.16C37.0582 114.84 34.5082 120.59 34.5082 128.37V158.7C34.5082 159.24 34.2182 159.73 33.7582 160C33.2982 160.27 32.7182 160.27 32.2582 160L1.69824 142.35C1.23824 142.08 0.948242 141.59 0.948242 141.05V110.72C0.948242 95.6004 5.18824 83.6404 13.2082 76.1504C14.8582 74.6104 16.6682 73.2604 18.5982 72.1504C29.9582 65.5704 44.9582 66.9904 60.8182 76.1604C93.0082 94.7504 119.198 140.11 119.198 177.27V207.6C119.198 208.14 118.908 208.63 118.448 208.9C118.218 209.03 117.958 209.1 117.698 209.1H117.708ZM88.6582 189.09L116.208 205V177.27C116.208 141.06 90.6882 96.8604 59.3282 78.7504C44.4282 70.1504 30.4982 68.7204 20.1082 74.7404C18.3782 75.7404 16.7482 76.9504 15.2682 78.3404C7.86824 85.2504 3.95824 96.4504 3.95824 110.72V140.18L31.5182 156.09V128.36C31.5182 119.47 34.5982 112.79 40.1882 109.56C45.7782 106.33 53.0882 106.98 60.7682 111.4C60.7982 111.42 60.8182 111.43 60.8482 111.45C76.1882 120.31 88.6582 141.92 88.6582 159.63V189.1V189.09Z" fill="#373A3A"/>
    <path d="M117.708 209.1C117.188 209.1 116.688 208.83 116.408 208.35C115.998 207.63 116.238 206.72 116.958 206.3L143.218 191.14C143.198 181.14 143.138 157.72 143.038 156.29C142.588 149.65 141.348 142.72 139.358 135.7C132.388 111.11 116.468 86.3604 97.7982 71.1104C94.0882 68.0804 90.2282 65.4004 86.3482 63.1504C71.4482 54.5404 57.4882 53.1304 47.0582 59.1804C46.3382 59.6004 45.4282 59.3504 45.0082 58.6404C44.5882 57.9204 44.8382 57.0104 45.5482 56.5904C56.9482 49.9704 71.9682 51.3804 87.8482 60.5504C91.8782 62.8804 95.8582 65.6504 99.6982 68.7804C119.108 84.6304 135.018 109.34 142.248 134.87C144.288 142.09 145.568 149.22 146.038 156.07C146.168 157.95 146.228 190.6 146.228 191.99C146.228 192.53 145.938 193.02 145.478 193.29L118.468 208.89C118.228 209.03 117.978 209.09 117.718 209.09L117.708 209.1Z" fill="#373A3A"/>
    <path d="M33.0082 160.19C32.4882 160.19 31.9882 159.92 31.7082 159.44C31.2982 158.72 31.5382 157.81 32.2582 157.39L58.5182 142.22V112.69C58.5182 111.86 59.1882 111.19 60.0182 111.19C60.8482 111.19 61.5182 111.86 61.5182 112.69V143.09C61.5182 143.63 61.2282 144.12 60.7682 144.39L33.7582 159.99C33.5182 160.13 33.2682 160.19 33.0082 160.19Z" fill="#373A3A"/>
    <path d="M19.3582 74.9504C18.8382 74.9504 18.3382 74.6804 18.0582 74.2004C17.6482 73.4804 17.8882 72.5704 18.6082 72.1504L45.6182 56.5604C46.3382 56.1504 47.2582 56.3904 47.6682 57.1104C48.0782 57.8304 47.8382 58.7404 47.1182 59.1604L20.1082 74.7504C19.8682 74.8904 19.6182 74.9504 19.3582 74.9504Z" fill="#373A3A"/>
    <path d="M159.678 166.42C159.418 166.42 159.158 166.35 158.928 166.22L143.778 157.48C143.058 157.07 142.818 156.15 143.228 155.43C143.638 154.71 144.558 154.47 145.278 154.88L159.678 163.19L185.328 148.39L158.418 107.28C157.968 106.59 158.158 105.66 158.848 105.2C159.538 104.74 160.468 104.94 160.928 105.63L188.708 148.06C188.938 148.4 189.008 148.83 188.908 149.23C188.808 149.63 188.558 149.98 188.198 150.18L160.418 166.21C160.188 166.34 159.928 166.41 159.668 166.41L159.678 166.42Z" fill="#373A3A"/>
    <path d="M159.678 166.42C158.848 166.42 158.178 165.75 158.178 164.92V111.49L142.058 136.11C141.608 136.81 140.678 137 139.978 136.54C139.288 136.09 139.088 135.16 139.548 134.46L158.428 105.63C158.788 105.07 159.478 104.83 160.108 105.01C160.748 105.2 161.178 105.78 161.178 106.45V164.91C161.178 165.74 160.508 166.41 159.678 166.41V166.42Z" fill="#373A3A"/>
    <path d="M157.688 86.5004C154.718 86.5004 151.718 86.2804 148.728 85.8204C137.068 84.0104 127.928 78.8704 124.278 72.0604C122.188 68.1604 122.058 64.0004 123.898 60.0304C128.318 50.5104 143.628 44.1204 160.288 44.8804C162.398 44.9704 164.498 45.1804 166.518 45.5004C178.178 47.3104 187.318 52.4504 190.958 59.2704C193.048 63.1704 193.178 67.3404 191.328 71.3104C190.618 72.8404 189.618 74.3104 188.368 75.6904C182.178 82.4904 170.308 86.5204 157.678 86.5204L157.688 86.5004ZM157.598 47.8204C143.138 47.8204 130.348 53.3004 126.628 61.2904C125.178 64.4104 125.278 67.5604 126.928 70.6404C130.088 76.5404 138.618 81.2204 149.188 82.8604C163.718 85.1004 179.268 81.2304 186.158 73.6604C187.208 72.5104 188.038 71.2904 188.618 70.0404C190.068 66.9104 189.968 63.7604 188.318 60.6804C185.168 54.7804 176.638 50.1004 166.068 48.4604C164.148 48.1604 162.168 47.9704 160.158 47.8804C159.298 47.8404 158.438 47.8204 157.588 47.8204H157.598Z" fill="#373A3A"/>
    <path d="M187.268 76.1604C187.128 76.1604 186.978 76.1404 186.828 76.1004L157.178 67.0904C156.478 66.8804 156.028 66.1804 156.128 65.4504L158.728 46.1704C158.838 45.3504 159.598 44.7704 160.418 44.8804C161.238 44.9904 161.818 45.7504 161.708 46.5704L159.278 64.5904L187.708 73.2304C188.498 73.4704 188.948 74.3104 188.708 75.1004C188.508 75.7504 187.918 76.1604 187.278 76.1604H187.268Z" fill="#373A3A"/>
    <path d="M56.1982 25.4304C55.6782 25.4304 55.1782 25.1604 54.8982 24.6804C54.4882 23.9604 54.7282 23.0504 55.4482 22.6304L79.9682 8.48039C80.4282 8.21039 81.0082 8.21039 81.4682 8.48039L99.4882 18.8804C100.208 19.2904 100.448 20.2104 100.038 20.9304C99.6282 21.6504 98.7082 21.9004 97.9882 21.4804L80.7182 11.5104L56.9482 25.2304C56.7082 25.3704 56.4582 25.4304 56.1982 25.4304Z" fill="#373A3A"/>
    <path d="M98.7382 71.4504C97.9082 71.4504 97.2382 70.7804 97.2382 69.9504V22.7804L56.9482 46.0404C56.4882 46.3104 55.9082 46.3104 55.4482 46.0404C54.9882 45.7704 54.6982 45.2804 54.6982 44.7404V14.8904L33.1282 27.3404V66.3604C33.1282 67.1904 32.4582 67.8604 31.6282 67.8604C30.7982 67.8604 30.1282 67.1904 30.1282 66.3604V26.4704C30.1282 25.9304 30.4182 25.4404 30.8782 25.1704L55.4482 10.9904C55.9082 10.7204 56.4882 10.7204 56.9482 10.9904C57.4082 11.2604 57.6982 11.7504 57.6982 12.2904V42.1404L97.9882 18.8804C98.4482 18.6104 99.0282 18.6104 99.4882 18.8804C99.9482 19.1504 100.238 19.6404 100.238 20.1804V69.9504C100.238 70.7804 99.5682 71.4504 98.7382 71.4504Z" fill="#373A3A"/>
    <path d="M14.2382 78.7504C13.9882 78.7504 13.7282 78.6904 13.4882 78.5504L12.8582 78.1904C12.3982 77.9204 12.1082 77.4304 12.1082 76.8904V16.0704C12.1082 15.5304 12.3982 15.0404 12.8582 14.7704L37.4182 0.590378C37.8782 0.320378 38.4582 0.320378 38.9182 0.590378L56.9382 10.9904C57.6582 11.4004 57.8982 12.3204 57.4882 13.0404C57.0782 13.7604 56.1582 14.0004 55.4382 13.5904L38.1682 3.62038L15.0982 16.9404V76.0304C15.7182 76.4704 15.9182 77.3304 15.5282 78.0004C15.2482 78.4804 14.7482 78.7504 14.2282 78.7504H14.2382Z" fill="#373A3A"/>
    <path d="M31.6282 27.9704C31.3782 27.9704 31.1182 27.9104 30.8782 27.7704L12.8582 17.3704C12.1382 16.9604 11.8982 16.0404 12.3082 15.3204C12.7282 14.6004 13.6382 14.3604 14.3582 14.7704L32.3782 25.1704C33.0982 25.5804 33.3382 26.5004 32.9282 27.2204C32.6482 27.7004 32.1482 27.9704 31.6282 27.9704Z" fill="#373A3A"/>
  </g>
  <defs>
    <clipPath id="clip0_283_1992">
      <rect width="191.68" height="208.71" fill="white" transform="translate(0.948242 0.390381)"/>
    </clipPath>
  </defs>
</svg>