<svg xmlns="http://www.w3.org/2000/svg" width="213" height="219" viewBox="0 0 213 219" fill="none">
  <g clip-path="url(#clip0_283_1966)">
    <g style="mix-blend-mode:multiply">
      <path d="M206.682 154.638L130.302 110.544C122.664 106.132 109.299 106.666 100.501 111.74L28.2407 153.443C23.4503 156.212 20.7068 159.945 20.7068 163.677C20.7068 166.851 22.6505 169.715 26.1766 171.736L95.1947 211.59V217.903C95.1947 218.428 95.6162 218.849 96.1408 218.849H115.388H116.016C116.059 218.849 116.094 218.849 116.137 218.849C122.011 218.763 127.919 217.241 132.374 214.661L202.975 173.895L204.617 172.94C209.133 170.326 211.799 166.937 212.126 163.265C212.384 159.876 210.457 156.814 206.682 154.638Z" fill="#DAE0E7"/>
    </g>
    <path d="M96.1407 197.898V217.645C91.1267 217.765 86.3191 216.836 82.7671 214.781L6.36987 170.67C3.02432 168.743 1.37305 166.163 1.37305 163.445V143.682C1.37305 146.399 3.01572 148.997 6.36987 150.923L10.0852 153.056L82.7757 195.043C86.3277 197.09 91.1353 198.027 96.1493 197.907L96.1407 197.898Z" fill="#DAE0E7"/>
    <path d="M95.2806 218.823C90.2064 218.823 85.588 217.757 82.1823 215.796L5.78502 171.684C2.18146 169.612 0.203369 166.688 0.203369 163.445V143.682C0.203369 143.037 0.727993 142.512 1.37302 142.512C2.01805 142.512 2.54267 143.037 2.54267 143.682C2.54267 146.064 4.10794 148.274 6.94607 149.908L10.6614 152.041L83.3519 194.028C86.5857 195.895 91.1267 196.849 96.1149 196.737C96.4675 196.755 96.7341 196.849 96.9577 197.073C97.1813 197.296 97.3103 197.597 97.3103 197.907V217.654C97.3103 218.29 96.8029 218.806 96.1665 218.823C95.8655 218.823 95.5731 218.832 95.2806 218.832V218.823ZM2.54267 149.392V163.445C2.54267 165.845 4.06494 167.995 6.94607 169.655L83.3433 213.766C86.3276 215.486 90.4214 216.441 94.9624 216.484V199.077C90.0086 199.034 85.5106 197.976 82.1737 196.049L9.49179 154.071L5.78502 151.938C4.48636 151.19 3.40271 150.338 2.54267 149.392Z" fill="#34393A"/>
    <path d="M190.891 143.312V143.432C190.607 146.52 188.234 149.702 183.847 152.239L182.205 153.194L111.613 193.959C103.073 198.887 90.1462 199.421 82.7585 195.155L10.068 153.176L6.35266 151.043C3.00711 149.117 1.35583 146.52 1.35583 143.802C1.35583 140.534 3.74674 137.085 8.41675 134.385L80.6772 92.6813C89.2174 87.7533 102.127 87.2028 109.532 91.4858L185.912 135.58C189.464 137.627 191.106 140.431 190.883 143.312H190.891Z" fill="white"/>
    <path d="M190.9 143.32V162.947C190.676 166.068 188.302 169.319 183.856 171.874L111.613 213.594C107.166 216.174 101.55 217.533 96.1321 217.654V197.907C101.55 197.787 107.175 196.428 111.613 193.848L182.205 153.082L183.847 152.127C188.234 149.59 190.607 146.408 190.891 143.32H190.9Z" fill="#5E646B"/>
    <path d="M96.1406 218.815C95.8396 218.815 95.5386 218.694 95.3236 218.479C95.1 218.264 94.9709 217.955 94.9709 217.645V197.898C94.9709 197.262 95.4784 196.746 96.1148 196.729C101.61 196.608 106.917 195.224 111.036 192.824L183.28 151.104C187.133 148.876 189.489 145.995 189.747 143.2C189.807 142.581 190.349 142.116 190.968 142.142C191.596 142.168 192.087 142.684 192.087 143.312V162.938C191.82 166.705 189.111 170.205 184.458 172.88L112.223 214.6C107.768 217.189 102.066 218.686 96.1836 218.815H96.1578H96.1406ZM97.3103 199.025V216.424C102.376 216.14 107.209 214.79 111.036 212.571L183.28 170.85C187.184 168.606 189.532 165.69 189.739 162.852V148.782C188.457 150.373 186.668 151.843 184.449 153.133L182.807 154.088L112.206 194.854C108.035 197.271 102.789 198.741 97.3103 199.025Z" fill="#34393A"/>
    <path d="M95.2806 199.18C90.3698 199.18 85.674 198.191 82.1736 196.17L9.48312 154.183L5.77635 152.05C2.18139 149.977 0.194702 147.044 0.194702 143.793C0.194702 139.975 2.98123 136.173 7.84045 133.37L80.1009 91.6665C88.9593 86.5578 102.428 86.016 110.125 90.471L186.505 134.565C190.341 136.775 192.31 139.897 192.061 143.355V143.432C192.061 143.432 192.061 143.501 192.061 143.535C191.725 147.148 189.025 150.596 184.441 153.245L182.798 154.2L112.198 194.966C107.373 197.752 101.172 199.18 95.2806 199.18ZM97.0179 89.7572C91.5566 89.7572 85.7772 91.0902 81.2705 93.6961L9.0101 135.391C4.89051 137.773 2.53401 140.835 2.53401 143.793C2.53401 146.176 4.09928 148.386 6.93741 150.02L10.6528 152.153L83.3432 194.14C90.4042 198.217 102.823 197.683 111.028 192.945L183.263 151.224C187.09 149.005 189.438 146.15 189.721 143.372V143.303C189.721 143.303 189.721 143.243 189.721 143.209C189.919 140.68 188.363 138.324 185.327 136.578L108.947 92.4835C105.764 90.643 101.49 89.74 97.0093 89.74L97.0179 89.7572Z" fill="#34393A"/>
    <path d="M116.506 154.114C116.257 154.286 115.982 154.466 115.706 154.613C104.896 160.848 87.3854 160.848 76.5747 154.613C76.2995 154.458 76.0243 154.286 75.7748 154.114C65.7726 147.853 66.0478 138.109 76.5747 132.028C87.3854 125.793 104.896 125.793 115.706 132.028C126.208 138.109 126.491 147.861 116.506 154.114Z" fill="#34393A"/>
    <path d="M96.1493 160.435C88.8475 160.435 81.5544 158.835 75.99 155.628C75.7147 155.481 75.4137 155.284 75.1041 155.069C70.0127 151.886 67.2262 147.629 67.3036 143.131C67.381 138.504 70.4685 134.195 75.99 131.013C87.1017 124.606 105.18 124.606 116.283 131.013C121.796 134.204 124.875 138.504 124.952 143.131C125.029 147.629 122.26 151.869 117.143 155.086C116.85 155.292 116.549 155.481 116.257 155.636C110.718 158.827 103.425 160.427 96.1407 160.427L96.1493 160.435ZM96.1407 128.511C89.269 128.511 82.3973 130.016 77.1596 133.034C72.3778 135.795 69.7031 139.399 69.6429 143.174C69.5741 146.829 71.9736 150.355 76.3942 153.125C76.6608 153.305 76.9016 153.46 77.1424 153.589C87.6263 159.635 104.655 159.635 115.13 153.598C115.388 153.452 115.629 153.305 115.844 153.151C115.861 153.142 115.879 153.125 115.896 153.116C120.299 150.355 122.699 146.821 122.63 143.166C122.561 139.39 119.895 135.786 115.13 133.026C109.901 130.007 103.03 128.502 96.1493 128.502L96.1407 128.511Z" fill="#34393A"/>
    <path d="M148.25 53.6871C148.25 63.741 145.412 73.1154 140.458 81.0794V81.1052C134.756 90.1528 131.66 99.1488 129.656 107.268C127.618 115.412 126.663 122.722 125.184 128.373C124.531 131.512 122.398 134.531 118.725 137.094C118.149 137.524 117.521 137.919 116.842 138.298C105.412 144.903 86.8866 144.903 75.4567 138.298C74.7773 137.919 74.1495 137.515 73.5732 137.094C69.9009 134.531 67.768 131.486 67.1143 128.373H67.0885C65.6093 122.697 64.6546 115.378 62.6421 107.242C60.6038 99.0972 57.5163 90.127 51.8143 81.0794C46.8862 73.1154 44.0481 63.7152 44.0481 53.6871C44.0309 24.9102 67.3552 1.586 96.132 1.586C124.909 1.586 148.25 24.9102 148.25 53.6785V53.6871Z" fill="#7BA9FF"/>
    <path d="M96.2525 136.517C95.9687 136.517 95.6934 136.517 95.4096 136.517C85.803 136.431 76.3168 134.66 67.2434 131.237C66.9423 131.125 66.7015 130.893 66.5725 130.592C66.3317 130.016 66.1425 129.439 66.0049 128.837C65.9791 128.777 65.9533 128.717 65.9361 128.657C65.2137 125.887 64.603 122.697 63.9666 119.317C63.2872 115.748 62.5217 111.697 61.4897 107.526C58.9956 97.5233 55.5984 89.31 50.7994 81.6814C45.6048 73.296 42.8527 63.6206 42.8527 53.6958C42.8613 24.3254 66.7531 0.433563 96.1235 0.433563C125.494 0.433563 149.411 24.3254 149.411 53.6958C149.411 63.5948 146.685 73.2272 141.525 81.561C141.499 81.6126 141.473 81.6642 141.447 81.7158C136.657 89.3186 133.269 97.5147 130.783 107.534C129.734 111.757 128.951 115.834 128.263 119.42C127.627 122.757 127.025 125.913 126.302 128.657C126.173 129.285 125.967 129.938 125.7 130.592C125.58 130.893 125.339 131.125 125.029 131.237C115.698 134.746 106.023 136.517 96.2525 136.517ZM68.5506 129.233C77.2198 132.432 86.2674 134.101 95.4268 134.178C105.016 134.273 114.537 132.613 123.713 129.233C123.842 128.872 123.946 128.511 124.023 128.124C124.737 125.397 125.33 122.284 125.958 118.981C126.646 115.361 127.429 111.258 128.504 106.975C131.032 96.7665 134.49 88.3811 139.383 80.5978C139.401 80.5462 139.426 80.5032 139.452 80.4602C144.432 72.4704 147.064 63.2164 147.064 53.713C147.064 25.6327 124.204 2.79007 96.1149 2.79007C68.026 2.79007 45.192 25.6327 45.192 53.713C45.192 63.2078 47.8151 72.4618 52.7775 80.4602C57.7055 88.3037 61.1973 96.7321 63.7516 106.975C64.8008 111.207 65.5749 115.292 66.2629 118.895C66.8821 122.146 67.467 125.217 68.1464 127.857C68.1894 127.943 68.2238 128.037 68.241 128.132C68.3184 128.519 68.4216 128.88 68.5506 129.242V129.233Z" fill="#34393A"/>
    <path d="M118.717 137.102C118.717 144.593 117.839 150.072 116.506 154.114C116.257 154.286 115.982 154.467 115.707 154.613C104.896 160.848 87.3855 160.848 76.5748 154.613C76.2996 154.458 76.0244 154.286 75.775 154.114C74.4419 150.063 73.5647 144.593 73.5647 137.102C74.1409 137.532 74.7688 137.928 75.4482 138.306C86.8781 144.912 105.403 144.912 116.833 138.306C117.513 137.928 118.141 137.524 118.717 137.102Z" fill="#D56AFF"/>
    <path d="M96.1492 160.435C88.8474 160.435 81.5543 158.835 75.9899 155.628C75.7146 155.481 75.4136 155.284 75.104 155.069C74.8976 154.922 74.7428 154.716 74.6654 154.475C73.1603 149.891 72.3949 144.051 72.3949 137.094C72.3949 136.655 72.6443 136.251 73.0399 136.053C73.4355 135.855 73.9086 135.898 74.2612 136.156C74.7944 136.552 75.3878 136.93 76.0157 137.283C87.1274 143.707 105.162 143.707 116.248 137.292C116.893 136.93 117.487 136.552 118.02 136.156C118.373 135.89 118.846 135.855 119.241 136.053C119.637 136.251 119.886 136.655 119.886 137.094C119.886 144.051 119.121 149.9 117.616 154.475C117.538 154.716 117.384 154.922 117.177 155.069C116.876 155.275 116.566 155.473 116.265 155.636C110.727 158.827 103.434 160.427 96.1492 160.427V160.435ZM76.7639 153.366C76.8843 153.443 77.0133 153.52 77.1423 153.589C87.6262 159.635 104.655 159.635 115.13 153.598C115.268 153.52 115.405 153.443 115.526 153.366C116.721 149.564 117.392 144.825 117.53 139.261C117.487 139.287 117.452 139.304 117.409 139.33C105.696 146.098 86.6027 146.098 74.8718 139.321C74.8374 139.304 74.803 139.287 74.7686 139.261C74.9062 144.825 75.577 149.564 76.7725 153.366H76.7639Z" fill="#34393A"/>
    <path d="M108.181 134.565C107.897 134.565 107.622 134.453 107.407 134.238C103.356 130.119 99.1078 126.756 94.7818 124.245C90.4214 121.716 86.1642 120.151 82.122 119.592C81.5286 119.515 81.1071 118.964 81.1932 118.362C81.2706 117.769 81.821 117.339 82.423 117.433C86.749 118.027 91.2728 119.687 95.8826 122.361C100.372 124.967 104.775 128.45 108.964 132.708C109.385 133.138 109.377 133.826 108.955 134.247C108.74 134.453 108.465 134.557 108.19 134.557L108.181 134.565Z" fill="white"/>
    <path d="M100.252 127.659C100.2 127.659 100.148 127.659 100.097 127.65C99.5033 127.564 99.0905 127.014 99.1765 126.421C101.155 112.522 107.304 77.9833 121.503 57.5229C121.847 57.0327 122.527 56.9037 123.017 57.2477C123.507 57.5917 123.636 58.2712 123.292 58.7614C109.359 78.8347 103.296 112.978 101.335 126.722C101.258 127.263 100.793 127.659 100.26 127.659H100.252Z" fill="white"/>
    <path d="M91.8319 122.585C91.2901 122.585 90.8257 122.181 90.7569 121.63C88.7616 105.556 82.6209 64.2742 68.6797 28.101C68.4646 27.542 68.7399 26.9142 69.3075 26.6905C69.8665 26.4755 70.4943 26.7508 70.7179 27.3184C84.7452 63.7152 90.9203 105.212 92.9241 121.364C93.0016 121.957 92.5715 122.507 91.9781 122.576C91.9351 122.576 91.8921 122.576 91.8405 122.576L91.8319 122.585Z" fill="white"/>
    <path d="M123.911 71.6189C123.567 71.6189 123.232 71.4727 123 71.1889C121.976 69.9247 120.153 69.9161 118.046 69.9075C115.887 69.9075 113.445 69.8903 111.759 68.2132C110.177 66.6393 109.213 63.5948 108.198 60.361C107.304 57.5315 106.289 54.3236 105.059 53.3603C104.251 52.7325 103.279 53.2141 101.413 54.3838C99.7184 55.4416 97.6113 56.7661 95.5559 55.5792C93.8272 54.5816 92.1931 51.6746 90.4644 48.5957C89.097 46.1618 87.2307 42.8334 86.0868 42.4034C85.545 42.1884 84.5818 44.1493 84.0055 45.3104C82.9391 47.4605 81.7264 49.8858 79.4989 49.5331C77.8477 49.2665 76.0674 47.34 73.3325 44.1837C71.8274 42.455 69.3161 39.5567 68.4474 39.5309C67.7852 39.5825 67.2434 39.1009 67.1918 38.4558C67.1402 37.8108 67.6218 37.2518 68.2668 37.1916C70.1331 37.054 72.0854 39.1611 75.1041 42.6356C76.635 44.3987 78.9485 47.0562 79.8773 47.211C80.4192 47.2798 81.4254 45.2416 81.9156 44.2525C83.0251 42.025 84.4011 39.2471 86.9125 40.1931C88.8562 40.9242 90.5418 43.9343 92.5027 47.4261C93.9304 49.9718 95.5473 52.8529 96.7255 53.5323C97.5081 53.9881 98.6004 53.3689 100.174 52.3885C102.015 51.236 104.311 49.7912 106.496 51.494C108.31 52.9045 109.342 56.1726 110.435 59.6386C111.32 62.4509 112.241 65.3665 113.419 66.5275C114.425 67.5338 116.197 67.5338 118.072 67.5424C120.437 67.5424 123.111 67.5596 124.832 69.6925C125.236 70.1913 125.158 70.9309 124.66 71.3351C124.445 71.5071 124.187 71.5931 123.929 71.5931L123.911 71.6189Z" fill="#34393A"/>
    <path d="M124.617 130.145C123.636 132.63 121.675 134.995 118.708 137.077C118.132 137.507 117.504 137.928 116.825 138.281C105.395 144.886 86.8694 144.886 75.4395 138.281C74.7601 137.928 74.1323 137.498 73.5561 137.077C70.5889 134.995 68.628 132.63 67.6476 130.145C74.6569 132.785 84.1087 135.245 95.4182 135.348C107.356 135.477 117.332 132.888 124.617 130.145Z" fill="#5E646B"/>
    <path d="M96.1493 144.387C88.4433 144.387 80.7288 142.693 74.8547 139.295C74.2613 138.986 73.6163 138.573 72.8594 138.014C69.7805 135.855 67.6562 133.344 66.564 130.566C66.392 130.136 66.4952 129.646 66.822 129.319C67.1488 128.992 67.639 128.88 68.069 129.044C76.893 132.363 86.104 134.092 95.4355 134.17C105.188 134.264 114.89 132.544 124.212 129.044C124.642 128.88 125.133 128.984 125.459 129.319C125.786 129.646 125.881 130.136 125.717 130.566C124.625 133.335 122.501 135.847 119.396 138.031C118.665 138.573 118.02 138.986 117.375 139.321C111.535 142.693 103.855 144.387 96.1579 144.387H96.1493ZM70.1761 132.277C71.1824 133.645 72.5326 134.926 74.2269 136.122C74.9063 136.621 75.4482 136.973 75.9814 137.248C87.1189 143.682 105.163 143.682 116.248 137.274C116.825 136.973 117.375 136.621 118.02 136.139C119.732 134.935 121.09 133.645 122.097 132.277C113.41 135.184 104.457 136.621 95.4097 136.509C86.8265 136.431 78.3551 135.012 70.1761 132.277Z" fill="#34393A"/>
  </g>
  <defs>
    <clipPath id="clip0_283_1966">
      <rect width="211.957" height="218.407" fill="white" transform="translate(0.194824 0.433563)"/>
    </clipPath>
  </defs>
</svg>