<svg width="140" height="140" viewBox="0 0 140 140" fill="none" xmlns="http://www.w3.org/2000/svg">
<g id="starknet-token-strk-logo (1) 1" clip-path="url(#clip0_6535_12134)">
<path id="Vector" fill-rule="evenodd" clip-rule="evenodd" d="M140 70C140 108.653 108.653 140 70 140C31.3466 140 0 108.653 0 70C0 31.3466 31.3466 0 70 0C108.653 0 140 31.3466 140 70Z" fill="#29296E"/>
<path id="Vector_2" fill-rule="evenodd" clip-rule="evenodd" d="M102.796 51.3148L101.012 45.8486C100.677 44.7331 99.7845 43.8965 98.669 43.506L93.2028 41.8327C92.422 41.6096 92.422 40.5498 93.2028 40.271L98.669 38.4861C99.7845 38.1514 100.621 37.259 101.012 36.1435L102.685 30.6773C102.908 29.8965 103.968 29.8965 104.247 30.6773L106.032 36.1435C106.366 37.259 107.259 38.0957 108.374 38.4861L113.84 40.1594C114.621 40.3825 114.621 41.4423 113.84 41.7212L108.374 43.506C107.259 43.8407 106.422 44.7331 106.032 45.8486L104.358 51.3148C104.079 52.0399 103.02 52.0399 102.796 51.3148Z" fill="#FAFAFA"/>
<path id="Vector_3" fill-rule="evenodd" clip-rule="evenodd" d="M6.13574 68.8845C7.80905 65.5936 11.0999 63.0837 14.5581 61.5219C18.0162 59.9602 21.809 59.012 25.5461 58.7331C33.076 58.0637 40.4385 59.2908 47.1318 61.5219C50.5899 62.5817 53.6577 63.9761 56.8369 65.4263C58.3987 66.1514 59.8489 67.0438 61.3549 67.8805L65.4824 70.2789C70.0561 73.0677 74.4624 75.5777 78.5899 77.5299C82.7732 79.4263 86.5102 80.7649 90.0242 81.4343C93.5381 82.1036 97.1636 82.1036 101.57 81.0996C105.976 80.0956 110.885 77.9203 116.072 75.1873C121.259 72.3984 126.614 68.996 132.694 65.7052C132.08 72.6215 130.128 79.1474 127.116 85.4502C123.992 91.6414 119.642 97.7211 113.339 102.629C107.148 107.594 98.6138 110.996 89.9684 111.554C81.2672 112.167 73.068 110.215 66.0401 107.315C59.0122 104.359 52.8768 100.51 47.5222 96.2709C46.0162 95.0996 45.2353 94.4303 44.1198 93.4821L41.0521 90.749C38.9883 89.1315 36.9804 87.1793 34.9166 85.5618C30.8449 81.992 26.7732 78.5339 22.311 75.5777C20.08 74.0717 17.7931 72.6215 15.1716 71.3944C13.8887 70.7809 12.4943 70.2231 10.9883 69.7769C9.48236 69.2749 7.97638 68.996 6.13574 68.8845Z" fill="#FF4F0A"/>
<path id="Vector_4" fill-rule="evenodd" clip-rule="evenodd" d="M6.13574 68.996C6.9724 61.9124 10.2632 55.2749 15.562 49.6415C20.8051 44.0638 29.06 39.7132 38.1517 39.1554C42.6696 38.8765 47.2433 39.3785 51.4266 40.494C55.6098 41.6654 59.5142 43.3387 63.0839 45.3466C64.8688 46.3506 66.4863 47.4662 68.1596 48.5259L72.566 51.8725L79.4266 57.2829C83.8887 60.7968 88.1278 64.0877 92.0322 66.8207C95.9923 69.5538 99.3389 71.506 102.574 72.6773C105.753 73.9602 109.769 74.2391 115.124 72.9004C117.745 72.2869 120.534 71.1713 123.49 69.9442C126.391 68.7172 129.458 67.2112 132.805 65.761C132.415 69.3307 131.69 72.8446 130.295 76.1913C128.956 79.5379 127.227 82.8287 124.829 85.8964C123.602 87.4024 122.263 88.9084 120.701 90.247C119.14 91.5857 117.411 92.8685 115.514 93.9841C111.721 96.1594 107.203 97.7769 102.574 98.3905C97.9445 98.9482 93.315 98.6693 89.076 97.7769C84.8369 96.8845 80.9883 95.4901 77.4186 93.8725C70.3349 90.5817 64.4226 86.4542 59.1796 82.0478C56.558 79.8725 54.1039 77.5857 51.7612 75.243L49.0282 72.4542C48.1915 71.6733 47.3549 70.8367 46.5182 70.1116C43.1716 67.1554 40.0481 64.8685 36.6457 63.4741C33.2433 61.9681 28.8927 61.4104 23.5381 62.4144C18.1835 63.4741 12.3828 65.761 6.13574 68.996Z" fill="#FAFAFA"/>
<path id="Vector_5" fill-rule="evenodd" clip-rule="evenodd" d="M34.5812 105.418C34.5812 107.594 32.8521 109.323 30.6768 109.323C28.5015 109.323 26.7725 107.594 26.7725 105.418C26.7725 103.243 28.5015 101.514 30.6768 101.514C32.8521 101.514 34.5812 103.243 34.5812 105.418Z" fill="#FAFAFA"/>
<path id="Vector_6" fill-rule="evenodd" clip-rule="evenodd" d="M34.5812 105.418C34.5812 107.594 32.8521 109.323 30.6768 109.323C28.5015 109.323 26.7725 107.594 26.7725 105.418C26.7725 103.243 28.5015 101.514 30.6768 101.514C32.8521 101.514 34.5812 103.243 34.5812 105.418Z" fill="#FAFAFA"/>
</g>
<defs>
<clipPath id="clip0_6535_12134">
<rect width="140" height="140" fill="white"/>
</clipPath>
</defs>
</svg>
